<?xml version="1.0" encoding="utf-8"?>
<!-- Generator: Adobe Illustrator 26.0.3, SVG Export Plug-In . SVG Version: 6.00 Build 0)  -->
<svg version="1.1" id="Layer_1" xmlns="http://www.w3.org/2000/svg" xmlns:xlink="http://www.w3.org/1999/xlink" x="0px" y="0px"
	 viewBox="0 0 64 64" style="enable-background:new 0 0 64 64;" xml:space="preserve">
<style type="text/css">
	.st0{fill:none;stroke:#1B42AB;stroke-miterlimit:10;}
	.st1{fill:#1B42AB;}
</style>
<path class="st0 st1" d="M22.6,41.6c-0.9-0.9-0.4-0.6-2.5-1.2c-0.9-0.3-1.8-0.7-2.5-1.3l-4.5,11c-0.4,1.1,0.4,2.2,1.5,2.2l5.2-0.2l3.6,3.8
	c0.8,0.8,2.2,0.6,2.6-0.5l5.2-12.6c-1.1,0.6-2.3,0.9-3.5,0.9C25.8,43.7,24,42.9,22.6,41.6z M50.9,50.1l-4.5-11
	c-0.7,0.6-1.6,1.1-2.5,1.3c-2.1,0.6-1.6,0.3-2.5,1.2c-1.4,1.4-3.2,2.1-5.1,2.1c-1.2,0-2.4-0.4-3.5-0.9l5.2,12.6
	c0.4,1.1,1.8,1.3,2.6,0.5l3.6-3.8l5.2,0.2C50.5,52.3,51.3,51.1,50.9,50.1z M39,39.3c1.5-1.5,1.7-1.4,3.8-2c1.4-0.4,2.4-1.5,2.8-2.9
	c0.7-2.8,0.5-2.5,2.6-4.5c1-1,1.4-2.5,1-3.9c-0.7-2.8-0.7-2.4,0-5.2c0.4-1.4,0-2.9-1-3.9c-2-2.1-1.8-1.7-2.6-4.5
	c-0.4-1.4-1.4-2.5-2.8-2.9c-2.8-0.8-2.4-0.6-4.4-2.6c-1-1-2.5-1.4-3.8-1c-2.8,0.8-2.4,0.8-5.1,0c-1.4-0.4-2.8,0-3.8,1
	c-2,2.1-1.7,1.9-4.4,2.6c-1.4,0.4-2.4,1.5-2.8,2.9c-0.7,2.8-0.5,2.5-2.6,4.5c-1,1-1.4,2.5-1,3.9c0.7,2.8,0.7,2.4,0,5.2
	c-0.4,1.4,0,2.9,1,3.9c2,2.1,1.8,1.7,2.6,4.5c0.4,1.4,1.4,2.5,2.8,2.9c2.2,0.6,2.4,0.5,3.8,2c1.3,1.3,3.3,1.6,4.9,0.6
	c1.3-0.8,2.9-0.8,4.2,0C35.7,40.9,37.7,40.6,39,39.3z M22.7,23.1c0-5.2,4.2-9.5,9.3-9.5s9.3,4.3,9.3,9.5s-4.2,9.5-9.3,9.5
	S22.7,28.3,22.7,23.1L22.7,23.1z"/>
<circle class="st0" cx="32" cy="32" r="31.5"/>
</svg>
