<svg id="Layer_1" data-name="Layer 1" xmlns="http://www.w3.org/2000/svg" viewBox="0 0 32.76 45"><defs><style>.cls-1{fill:none;stroke:#ffd200;stroke-miterlimit:10;}</style></defs><path class="cls-1" d="M43,25c0-2-3-10-3-10H24s-.37,1.17-1,3L43,41.57Z" transform="translate(-15.95 -9.5)"/><path class="cls-1" d="M21,52a2.15,2.15,0,0,0,2,2H42a.86.86,0,0,0,.65-.25L21,27.94Z" transform="translate(-15.95 -9.5)"/><path class="cls-1" d="M24,10H40c1,0,1,3,0,3H24C23,13,23,10,24,10Z" transform="translate(-15.95 -9.5)"/><rect class="cls-1" x="30.33" y="13.14" width="4" height="44" transform="translate(-30.97 19.5) rotate(-40)"/></svg>