<svg id="Layer_1" data-name="Layer 1" xmlns="http://www.w3.org/2000/svg" viewBox="0 0 64 64">
<defs>
<style>
.cls-1{fill:none;stroke:#1B42AB;stroke-miterlimit:10;}
.cls-2{fill:#1B42AB;}
</style>
</defs>
<circle class="cls-1 cls-2" cx="24.75" cy="15.42" r="3.76"/>
<path class="cls-1 cls-2" d="M25.8,49.57l-4.57-6.51.53-1.94L17.86,40,17,43.37a2.09,2.09,0,0,0,.36,1.43l5,7.15a2.07,2.07,0,1,0,3.39-2.38Z"/>
<path class="cls-1 cls-2" d="M13,38.58l-1.29,4.29a1.89,1.89,0,0,0-.06.47V53a2.06,2.06,0,0,0,2.07,2.07h0A2.07,2.07,0,0,0,15.82,53V43.58l1.06-3.87Z"/>
<circle class="cls-1 cls-2" cx="42.89" cy="12.75" r="3.76"/>
<path class="cls-1 cls-2" d="M53.41,21.11l-6.47-2.8a1.79,1.79,0,0,0-.72-.15H39.85c-.47-.59-9.39-12-9.85-12.61a1.82,1.82,0,1,0-2.76,2.37C29,11,30.57,14.64,28.52,18.3l-4.06,2c-.06,0-4-1.28-7.86-2.48L13,12.28A1.92,1.92,0,0,0,9.8,14.35l3.95,6.16a1.92,1.92,0,0,0,1,.79l2.67.84L10.24,36.58a.94.94,0,0,0,.52,1.34l11.85,3.45a1,1,0,0,0,1.16-.86l1.64-16.17,4.75-3.1c1-.76,1.07-.84,1.28-1.92l.47-5.42c7.36,9.42,5.68,7.36,5.9,7.61V53a2.18,2.18,0,1,0,4.35,0V35.56h1c0,.34-.26-1,3.77,17.87a2.18,2.18,0,0,0,4.26-.91L47.42,35.14V30.09l.21-.17,6.29-5.81A1.82,1.82,0,0,0,53.41,21.11Zm-6,4.06V22.48l2,.86Z"/>
<circle class="cls-1" cx="32" cy="32" r="31.5"/>
</svg>