<svg id="Layer_1" data-name="Layer 1" xmlns="http://www.w3.org/2000/svg" viewBox="0 0 64 64">
<defs>
<style>
.cls-1{fill:none;stroke:#1b42ab;stroke-miterlimit:10;}
.cls-2{fill:#1b42ab;}
</style>
</defs>
<path class="cls-1" d="M32.8,18.07a18,18,0,1,0,18,18A18,18,0,0,0,32.8,18.07Z"/>
<path class="cls-1 cls-2" d="M55,32.46V12.3a.45.45,0,0,0-.81-.27,19.11,19.11,0,0,0-3.88,11.53v7.37a1.54,1.54,0,0,0,1.54,1.53h.63c-.62,6.5-1,15.59-1,16.66,0,1.67,1,3,2.3,3s2.31-1.36,2.31-3C56,48.05,55.58,39,55,32.46Z"/>
<path class="cls-1 cls-2" d="M14.69,28.46a4.39,4.39,0,0,0,2.13-3.77l-.63-10.33a.75.75,0,0,0-1.49.08l.41,8.29a.85.85,0,0,1-1.69,0l-.2-8.29a.81.81,0,0,0-1.62,0l-.2,8.29a.85.85,0,0,1-1.69,0l.41-8.29a.75.75,0,0,0-1.49-.08L8,24.69a4.39,4.39,0,0,0,2.13,3.77,2.5,2.5,0,0,1,1.18,2.41c-.72,6.49-1.2,17.09-1.2,18.25,0,1.67,1,3,2.3,3s2.31-1.36,2.31-3c0-1.16-.49-11.76-1.21-18.25A2.5,2.5,0,0,1,14.69,28.46Z"/>
<circle class="cls-1" cx="32" cy="32" r="31.5"/>
</svg>