<svg id="Layer_1" data-name="Layer 1" xmlns="http://www.w3.org/2000/svg" viewBox="0 0 34.39 57.41"><defs><style>.cls-1{fill:none;stroke:#ffd200;stroke-miterlimit:10;stroke-width:0.25px;}</style></defs><path class="cls-1" d="M17.75,15.61c1.94,0,3-2,3.24-3.23.65-3.24-1.95-9.72-3.24-9.72s-3.89,6.48-3.24,9.72C14.77,13.64,15.81,15.61,17.75,15.61Z" transform="translate(-1.67 -2.53)"/><path class="cls-1" d="M20.31,23.46c1.68,1,3.57-.21,4.42-1.18,2.18-2.49,3.18-9.39,2.06-10s-6.61,3.67-7.67,6.8C18.71,20.26,18.62,22.49,20.31,23.46Z" transform="translate(-1.67 -2.53)"/><path class="cls-1" d="M15.19,23.46c1.69-1,1.6-3.2,1.19-4.42-1.06-3.13-6.54-7.45-7.66-6.8-.8.46-.53,4,.46,7l3.74,4.46A2.76,2.76,0,0,0,15.19,23.46Z" transform="translate(-1.67 -2.53)"/><path class="cls-1" d="M24.73,34.28c2.18-2.49,3.18-9.39,2.06-10s-6.61,3.67-7.67,6.8h0l3.78,4.51A4.94,4.94,0,0,0,24.73,34.28Z" transform="translate(-1.67 -2.53)"/><path class="cls-1" d="M10.77,34.28c.85,1,2.74,2.15,4.42,1.18a2.67,2.67,0,0,0,.65-.54l-7.58-9C8.21,28.25,9.17,32.45,10.77,34.28Z" transform="translate(-1.67 -2.53)"/><path class="cls-1" d="M19.12,43c-.41,1.22-.5,3.45,1.19,4.42s3.57-.21,4.42-1.18a3,3,0,0,0,.3-.4l-4.44-5.29A8.25,8.25,0,0,0,19.12,43Z" transform="translate(-1.67 -2.53)"/><path class="cls-1" d="M26.79,36.24c-.41-.23-1.39.19-2.52,1L27,40.46C27.37,38.39,27.34,36.56,26.79,36.24Z" transform="translate(-1.67 -2.53)"/><path class="cls-1" d="M8.72,36.24c-1.13.65-.13,7.55,2,10,.85,1,2.74,2.15,4.42,1.18s1.6-3.2,1.19-4.42C15.32,39.91,9.84,35.59,8.72,36.24Z" transform="translate(-1.67 -2.53)"/><path class="cls-1" d="M19.62,55c-.41,1.22-.5,3.45,1.19,4.42s3.57-.21,4.42-1.18C27.06,56.19,28.05,51,27.66,49L27,48.18C25.38,48.23,20.6,52.14,19.62,55Z" transform="translate(-1.67 -2.53)"/><path class="cls-1" d="M9.22,48.24c-1.13.65-.13,7.55,2,10,.85,1,2.74,2.15,4.42,1.18s1.6-3.2,1.19-4.42C15.82,51.91,10.34,47.59,9.22,48.24Z" transform="translate(-1.67 -2.53)"/><rect class="cls-1" x="16.37" y="11.08" width="5" height="47" transform="translate(-19.49 17.69) rotate(-40)"/></svg>