<svg id="Layer_1" data-name="Layer 1" xmlns="http://www.w3.org/2000/svg" viewBox="0 0 30.01 30.1"><defs><style>.cls-1{fill:#fff;stroke:#ffd200;stroke-miterlimit:10;stroke-width:0.25px;}</style></defs><path class="cls-1" d="M20.91,2.5c-.33-.91-1.29-2.25-2.69-2s-1.91,1.77-1.95,2.74a9.88,9.88,0,0,0,1.35,4.41,16.8,16.8,0,0,1,2.52,2C20.92,8.3,21.6,4.44,20.91,2.5Z" transform="translate(-0.57 -0.32)"/><path class="cls-1" d="M20.77,10.2c.66.66,5.4-1.44,6.76-3.48.54-.8,1-2.37,0-3.36s-2.57-.49-3.36.05C22.17,4.79,20.1,9.53,20.77,10.2Z" transform="translate(-0.57 -0.32)"/><path class="cls-1" d="M27.63,14.87c1,0,2.54-.49,2.79-1.88s-1.06-2.39-2-2.73c-1.92-.75-5.81-.17-7.1.58a16.2,16.2,0,0,1,1.87,2.56A9.92,9.92,0,0,0,27.63,14.87Z" transform="translate(-0.57 -0.32)"/><path class="cls-1" d="M21.47,21a20.36,20.36,0,0,0,2.06-1.76C27.72,15.15,15.73,3.09,11.67,7a27.18,27.18,0,0,0-4,5.35,13,13,0,0,1,1.08,1.28,21.24,21.24,0,0,1,2.52,5c-.31-.08-1.64-1.58-4.4-3.89a4.61,4.61,0,0,0-.38-.28,68.65,68.65,0,0,0-3.67,8.17,18.85,18.85,0,0,1,1.43,3.19,14.24,14.24,0,0,1-2-1.74C1.08,27.45.49,30,.76,30.23s5.51-1.14,11.06-3.7C9.9,24,8.65,22.71,8.59,22.41a21,21,0,0,1,4.81,2.82l.4.36a56,56,0,0,0,5.7-3.22,9.87,9.87,0,0,0-.61-.93c-2.14-2.91-3.55-4.32-3.62-4.64a20.56,20.56,0,0,1,4.81,2.83A12,12,0,0,1,21.47,21Z" transform="translate(-0.57 -0.32)"/></svg>