<svg id="Layer_1" data-name="Layer 1" xmlns="http://www.w3.org/2000/svg" viewBox="0 0 214.2 85.57"><defs><style>.cls-1{fill:#231f20;}</style></defs><path class="cls-1" d="M200.4,84.93H13.82V71.59L1,71.57,1,14l12.82,0L13.8.64H200.39l0,13.34,12.82,0V71.57l-12.82,0Zm-184.58-2H198.4l0-13.34H211.2V16l-12.82,0V2.64H15.81V16L3,16,3,69.58H15.83Z"/><path class="cls-1" d="M206.83,76.2V9.37h7.37V0h-9.37V7.37H9.37V0H0V9.37H7.37V76.2H0v9.37H9.38V78.2H204.83v7.37h9.37V76.2Zm0-74.2h5.37V7.37h-5.37ZM2,7.37V2H7.37V7.37Zm5.38,76.2H2V78.2H7.38Zm2-7.37V9.37H204.82V76.2ZM212.2,83.57h-5.37V78.2h5.37Z"/></svg>