<svg id="Layer_1" data-name="Layer 1" xmlns="http://www.w3.org/2000/svg" viewBox="0 0 209.56 90.26"><defs><style>.cls-1{fill:#ffd200;}</style></defs><path class="cls-1" d="M209.56,19.57V11.71H201.7v5.88l-9.2,0,0-10h5.87V-.22h-7.86V5.64H19.33V-.22H11.47V7.64h5.76v9.91l-9.37,0V11.64H0V19.5H5.86L5.81,70.17H.12V78H8V72.21h9.26v10H11.4v7.86h7.86V84.19H190.42v5.86h7.86V82.19h-5.84v-10h9.26V78h7.86V70.12h-5.83V19.57Zm-5.86-5.86h3.86v3.86H203.7ZM192.48,1.78h3.86V5.64h-3.83S192.48,1.78,192.48,1.78Zm-179,3.86V1.78h3.86V5.63H13.47ZM2,13.64H5.86V17.5H2ZM6,76H2.12V72.18H6Zm11.28,12H13.4V84.19h3.84S17.26,88.05,17.26,88.05Zm179-3.86v3.86h-3.86V84.19Zm11.28-12.07V76H203.7V72.19s0-.07,0-.07ZM201.7,70.2l-11.26,0v12H19.26s0-12,0-12l-11.43,0q0-25.32.05-50.66l11.27,0V7.61l171.35,0q0,6,0,12l11.23,0Z" transform="translate(0 0.22)"/><path class="cls-1" d="M198.53,78.26H11.22V11.57H198.53Zm-185.31-2H196.53V13.57H13.22Z" transform="translate(0 0.22)"/><path class="cls-1" d="M187,72h-164V66.7H17.73V23H23V17.88H187.05V23h5.22l-.05,43.75H187ZM24.9,70H185V64.8h5.26l0-39.78h-5.21V19.88H25V25H19.73V64.7h5.18C24.91,66.45,24.9,68.21,24.9,70Z" transform="translate(0 0.22)"/></svg>