<svg id="Layer_1" data-name="Layer 1" xmlns="http://www.w3.org/2000/svg" viewBox="0 0 122.65 15.64"><defs><style>.cls-1{fill:#ffd200;}</style></defs><path class="cls-1" d="M70.21,14.7l-18.39.06-7-6.95,7-6.95H70.3l6.9,7Zm-.78-1.93,4.94-4.94-5-5H52.65L47.7,7.81l5.2,5Z"/><circle class="cls-1" cx="61.04" cy="8.32" r="2.29"/><rect class="cls-1" x="88.21" y="7.32" width="30.08" height="2"/><polygon class="cls-1" points="83.33 15.64 75.53 7.83 83.33 0.03 122.65 0.02 122.65 2.02 84.16 2.03 78.35 7.83 84.16 13.64 122.63 13.61 122.63 15.61 83.33 15.64"/><rect class="cls-1" x="5.35" y="7.3" width="30.08" height="2"/><polygon class="cls-1" points="39.32 15.62 0.02 15.59 0.02 13.59 38.49 13.62 44.3 7.82 38.49 2.01 0 2 0 0 39.32 0.01 47.12 7.82 39.32 15.62"/></svg>