<svg id="Layer_1" data-name="Layer 1" xmlns="http://www.w3.org/2000/svg" viewBox="0 0 323 39.57"><defs><style>.cls-1{fill:#ffd200;}</style></defs><rect class="cls-1" x="173" y="19" width="150" height="2"/><rect class="cls-1" y="19" width="150" height="2"/><path class="cls-1" d="M161.32,32.7,148.5,19.88,161.32,7.05l12.82,12.83Zm-10-12.82,10,10,10-10-10-10Z" transform="translate(0)"/><path class="cls-1" d="M161.32,39.57l-9.47-9.48,9.47-9.47,9.47,9.47Zm-6.64-9.48,6.64,6.65L168,30.09l-6.65-6.64Z" transform="translate(0)"/><path class="cls-1" d="M161.32,18.94l-9.47-9.47L161.32,0l9.47,9.47Zm-6.64-9.47,6.64,6.65L168,9.47l-6.65-6.64Z" transform="translate(0)"/><rect class="cls-1" x="187.03" y="25.5" width="118.49" height="2"/><rect class="cls-1" x="186.58" y="13.04" width="118.49" height="2"/><rect class="cls-1" x="20.24" y="25.23" width="117.7" height="2"/><rect class="cls-1" x="19.8" y="12.77" width="117.7" height="2"/></svg>