<svg id="Layer_1" data-name="Layer 1" xmlns="http://www.w3.org/2000/svg" viewBox="0 0 120.44 42.45"><defs><style>.cls-1{fill:#ffd200;}</style></defs><rect class="cls-1" x="3.29" y="20.39" width="36.75" height="2"/><path class="cls-1" d="M59.36,42.45,38.13,21.22,59.36,0,80.58,21.22ZM41,21.22l18.4,18.4,18.39-18.4L59.36,2.83Z" transform="translate(-0.22)"/><path class="cls-1" d="M59.36,35.68,45.06,21.39l14.3-14.3,14.29,14.3ZM47.89,21.39,59.36,32.85,70.82,21.39,59.36,9.92Z" transform="translate(-0.22)"/><rect class="cls-1" x="54.53" y="16.57" width="9.65" height="9.65" transform="translate(32.29 -35.71) rotate(45)"/><rect class="cls-1" x="79.4" y="20.22" width="36.75" height="2"/><rect class="cls-1" x="69.65" y="29.28" width="36.75" height="2"/><rect class="cls-1" x="12.49" y="29.28" width="35.89" height="2"/><rect class="cls-1" x="69.65" y="11.28" width="36.89" height="2"/><rect class="cls-1" x="12.54" y="11.28" width="35.74" height="2"/><rect class="cls-1" x="113.33" y="18.19" width="6.07" height="6.07" transform="translate(48.88 -76.07) rotate(45)"/><rect class="cls-1" x="1.47" y="18.35" width="6.07" height="6.07" transform="translate(16.23 3.08) rotate(45)"/></svg>